<?xml version="1.0"?>
<VTKFile type="PolyData" version="0.1" byte_order="LittleEndian">
  <PolyData>
    <Piece NumberOfPoints="8" NumberOfPolys="12">
      <PointData>
        <DataArray type="Float64" Name="S_Mises" NumberOfComponents="1">
0
0
0
0
0
0
0
0
        </DataArray>
        <DataArray type="Float64" Name="U" NumberOfComponents="3">
0 0 0
0 0 0
0 0 0
0 0 0
0 0 0
0 0 0
0 0 0
0 0 0
        </DataArray>
      </PointData>
      <Points>
        <DataArray type="Float64" Name="Points" NumberOfComponents="3">
-1 -1 -1
1 -1 -1
1 1 -1
-1 1 -1
-1 -1 1
1 -1 1
1 1 1
-1 1 1
        </DataArray>
      </Points>
      <Polys>
        <DataArray type="Int32" Name="connectivity">
0 1 2 0 2 3 4 6 5 4 7 6 0 4 5 0 5 1 3 2 6 3 6 7 0 3 7 0 7 4 1 5 6 1 6 2
        </DataArray>
        <DataArray type="Int32" Name="offsets">
3 6 9 12 15 18 21 24 27 30 33 36
        </DataArray>
      </Polys>
    </Piece>
  </PolyData>
</VTKFile>